<svg width="234" height="234" viewBox="0 0 234 234" fill="none" xmlns="http://www.w3.org/2000/svg">
<path d="M232 2H2V232H232V2Z" fill="white"/>
<path d="M128.675 59.4363V118.597C126.596 118.252 124.418 117.811 122.139 117.252V75.258L116.738 70.7983V53.1895L128.678 59.4363H128.675Z" fill="#770E14"/>
<path d="M157.924 116.42C156.938 116.83 155.852 117.228 154.665 117.591C149.982 119.031 143.032 120.183 133.678 119.256V71.4922L143.821 78.7234V105.019C143.821 108.442 146.595 111.213 150.015 111.213H157.883L157.922 116.42H157.924Z" fill="url(#paint0_linear_282_3730)"/>
<path d="M114.631 70.7972V115.248C103.984 112.586 95.6585 112.327 89.3887 113.06V111.073C93.738 111.073 97.2662 107.547 97.2662 103.196V99.124L103.304 96.4422V75.7813L114.633 70.7949L114.631 70.7972Z" fill="#770E14"/>
<path d="M77.0449 122.164C77.0449 122.164 85.203 107.722 117.84 117.633C152.446 128.141 164.397 113.49 164.397 113.49C164.397 113.49 151.926 132.808 123.119 125.666C99.5021 119.811 87.8963 115.845 77.0472 122.164H77.0449Z" fill="url(#paint1_linear_282_3730)"/>
<path d="M55.1898 138.259C55.1898 138.259 65.0453 113.345 110.7 127.578C159.111 142.668 174.144 117.117 174.144 117.117C174.144 117.117 158.823 150.561 118.672 140.701C85.7568 132.617 69.4797 126.814 55.1875 138.259H55.1898Z" fill="url(#paint2_linear_282_3730)"/>
<path d="M102.01 87.8947C102.024 87.8947 102.038 87.8947 102.052 87.8947V74.5087L111.544 70.3296C109.515 67.2131 106.003 65.1523 102.008 65.1523C95.7289 65.1523 90.6367 70.2422 90.6367 76.5235C90.6367 82.8048 95.7266 87.8947 102.008 87.8947H102.01Z" fill="url(#paint3_linear_282_3730)"/>
<path d="M40.3245 153.466C40.3245 157.399 38.1602 158.703 34.7723 158.703C31.8306 158.703 28.9395 157.596 28.9395 152.506C28.9395 147.136 32.1296 146.326 34.7723 146.326C37.9624 146.326 39.9105 147.499 40.1428 150.275H37.6979C37.5484 149.119 36.9044 148.408 34.839 148.408C32.5758 148.408 31.4189 149.268 31.4189 152.523C31.4189 155.943 32.6747 156.621 34.7907 156.621C37.2034 156.621 37.8796 155.862 37.8796 154.11H35.1357V152.076H40.3245V153.466Z" fill="#770E14"/>
<path d="M42.9359 146.594H48.0741C50.5351 146.594 52.6833 146.661 52.6833 150.148C52.6833 152.462 51.7242 153.319 50.3695 153.635L53.4584 158.444H50.4845L47.5773 153.784H45.3785V158.444H42.9336V146.597L42.9359 146.594ZM45.3808 148.625V151.749H47.5796C49.5461 151.749 50.2062 151.551 50.2062 150.063C50.2062 148.874 49.7922 148.625 47.7268 148.625H45.3808Z" fill="#770E14"/>
<path d="M63.2602 158.442C63.0463 157.616 62.7979 156.772 62.5495 155.93H57.7402C57.4918 156.772 57.2618 157.616 57.0456 158.442H54.4512C55.6403 154.476 57.0617 150.527 58.8143 146.594H61.5582C63.3108 150.493 64.7644 154.444 65.9374 158.442H63.2602ZM58.3842 153.897H61.9032C61.3903 152.376 60.813 150.84 60.1506 149.304C59.4721 150.84 58.8948 152.376 58.3819 153.897H58.3842Z" fill="#770E14"/>
<path d="M67.9688 146.594H70.4642L75.0733 154.41V146.594H77.5182V158.442H75.0733L70.4136 150.576V158.442H67.9688V146.594Z" fill="#770E14"/>
<path d="M85.5009 146.594C89.2361 146.594 90.5747 148.213 90.5747 152.459C90.5747 156.705 89.1533 158.442 85.4848 158.442H80.5605V146.594H85.5009ZM83.0054 148.625V156.408H85.1697C87.5502 156.408 88.0953 155.5 88.0953 152.475C88.0953 149.253 87.748 148.625 84.9052 148.625H83.0054Z" fill="#770E14"/>
<path d="M103.461 146.33C106.288 146.33 109.211 147.238 109.211 152.51C109.211 157.781 106.384 158.706 103.509 158.706C100.485 158.706 97.7754 157.6 97.7754 152.51C97.7754 147.139 100.784 146.33 103.459 146.33H103.461ZM103.594 156.622C105.246 156.622 106.734 156.291 106.734 152.441C106.734 149.416 105.809 148.409 103.445 148.409C101.246 148.409 100.255 149.285 100.255 152.572C100.255 155.858 101.345 156.62 103.592 156.62L103.594 156.622Z" fill="#770E14"/>
<path d="M121.754 154.54C121.588 156.853 120.3 158.703 116.648 158.703C112.995 158.703 111.277 156.934 111.277 152.573C111.277 148.212 112.979 146.326 116.664 146.326C119.571 146.326 121.356 147.566 121.754 150.275H119.309C119.028 149.217 118.681 148.408 116.666 148.408C114.651 148.408 113.759 149.613 113.759 152.787C113.759 155.248 114.419 156.621 116.701 156.621C118.336 156.621 119.113 156.108 119.311 154.54H121.756H121.754Z" fill="#770E14"/>
<path d="M124.316 146.594H133.056V148.627H126.761V151.222H132.578V153.255H126.761V156.411H133.321V158.444H124.316V146.597V146.594Z" fill="#770E14"/>
<path d="M143.733 158.442C143.519 157.616 143.271 156.772 143.022 155.93H138.213C137.964 156.772 137.734 157.616 137.518 158.442H134.924C136.113 154.476 137.534 150.527 139.287 146.594H142.031C143.783 150.493 145.237 154.444 146.41 158.442H143.733ZM138.857 153.897H142.376C141.863 152.376 141.286 150.84 140.623 149.304C139.945 150.84 139.367 152.376 138.855 153.897H138.857Z" fill="#770E14"/>
<path d="M148.441 146.594H150.937L155.546 154.41V146.594H157.991V158.442H155.546L150.886 150.576V158.442H148.441V146.594Z" fill="#770E14"/>
<path d="M166.238 146.594H168.683V156.36H174.599V158.442H166.238V146.594Z" fill="#770E14"/>
<path d="M184.727 158.442C184.513 157.616 184.265 156.772 184.016 155.93H179.207C178.959 156.772 178.729 157.616 178.512 158.442H175.918C177.107 154.476 178.528 150.527 180.281 146.594H183.025C184.778 150.493 186.231 154.444 187.404 158.442H184.727ZM179.853 153.897H183.372C182.859 152.376 182.282 150.84 181.62 149.304C180.941 150.84 180.364 152.376 179.851 153.897H179.853Z" fill="#770E14"/>
<path d="M189.436 146.594H191.931L196.54 154.41V146.594H198.985V158.442H196.54L191.88 150.576V158.442H189.436V146.594Z" fill="#770E14"/>
<path d="M206.968 146.594C210.703 146.594 212.042 148.213 212.042 152.459C212.042 156.705 210.62 158.442 206.952 158.442H202.027V146.594H206.968ZM204.472 148.625V156.408H206.637C209.017 156.408 209.562 155.5 209.562 152.475C209.562 149.253 209.215 148.625 206.372 148.625H204.472Z" fill="#770E14"/>
<path d="M61.7078 171.483H60.3784L58.8926 164.553H59.9943L61.0454 169.818L61.9585 164.553H63.0395L61.7101 171.483H61.7078Z" fill="#770E14"/>
<path d="M67.1407 166.998V171.483H66.177V170.818C66.0114 171.018 65.8251 171.19 65.6158 171.335C65.4088 171.48 65.1696 171.554 64.8982 171.554C64.7188 171.554 64.5739 171.519 64.4612 171.45C64.3485 171.381 64.2634 171.292 64.199 171.181C64.1369 171.071 64.0955 170.944 64.0748 170.797C64.0541 170.65 64.0449 170.507 64.0449 170.36V166.317H65.0247V170.1C65.0247 170.167 65.0247 170.236 65.0293 170.305C65.0339 170.374 65.0454 170.438 65.0707 170.498C65.096 170.558 65.1305 170.606 65.1788 170.643C65.2271 170.68 65.2961 170.698 65.3835 170.698C65.5422 170.698 65.6917 170.643 65.8297 170.533C65.9677 170.422 66.0827 170.305 66.1747 170.181V166.314H67.0257L67.0924 166.107H66.7313V165.25H67.5064V166.107L67.1361 166.995L67.1407 166.998Z" fill="#770E14"/>
<path d="M71.353 166.906C71.3622 166.922 71.3737 166.94 71.3829 166.961C71.4381 167.078 71.4749 167.2 71.5002 167.326C71.5232 167.451 71.5393 167.579 71.5485 167.711C71.5577 167.842 71.5623 167.973 71.5623 168.104V169.707C71.5623 169.978 71.5439 170.238 71.5048 170.491C71.4657 170.744 71.3461 170.97 71.146 171.174C70.9873 171.333 70.8056 171.441 70.6009 171.499C70.3962 171.556 70.1846 171.586 69.9684 171.586C69.7522 171.586 69.5383 171.556 69.3359 171.494C69.1335 171.434 68.9541 171.326 68.7954 171.174C68.593 170.986 68.4734 170.758 68.4412 170.498C68.4067 170.236 68.3906 169.974 68.3906 169.709V168.106C68.3906 167.975 68.3906 167.844 68.3952 167.713C68.3975 167.582 68.4136 167.455 68.4412 167.329C68.4688 167.205 68.5102 167.083 68.5654 166.968C68.6206 166.853 68.6988 166.745 68.7954 166.643C68.9541 166.485 69.1358 166.374 69.3405 166.312C69.5452 166.25 69.7545 166.218 69.9661 166.218C70.1777 166.218 70.4031 166.248 70.6055 166.31C70.7872 166.367 70.9528 166.466 71.1023 166.609L71.2656 166.112H70.9045V165.254H71.6796V166.112L71.3507 166.908L71.353 166.906ZM70.5917 168.042C70.5917 167.929 70.5848 167.819 70.571 167.704C70.5572 167.591 70.5296 167.49 70.4882 167.4C70.4468 167.31 70.3824 167.237 70.2996 167.182C70.2168 167.126 70.1064 167.099 69.9684 167.099C69.8304 167.099 69.72 167.129 69.6418 167.188C69.5636 167.248 69.5015 167.322 69.4624 167.412C69.421 167.501 69.3934 167.6 69.3796 167.711C69.3635 167.821 69.3566 167.931 69.3566 168.042V169.755C69.3566 169.868 69.3635 169.978 69.3796 170.086C69.3957 170.197 69.4233 170.298 69.4624 170.388C69.5038 170.48 69.5636 170.553 69.6418 170.611C69.7223 170.668 69.8304 170.698 69.9684 170.698C70.1064 170.698 70.2168 170.671 70.2996 170.618C70.3824 170.565 70.4445 170.491 70.4882 170.399C70.5296 170.307 70.5595 170.206 70.571 170.093C70.5848 169.981 70.5917 169.868 70.5917 169.755V168.042Z" fill="#770E14"/>
<path d="M74.9391 171.483V167.705C74.9391 167.633 74.9391 167.564 74.9345 167.493C74.9322 167.424 74.9161 167.36 74.8908 167.3C74.8655 167.24 74.8264 167.192 74.7758 167.155C74.7252 167.118 74.6539 167.1 74.5619 167.1C74.4032 167.1 74.256 167.157 74.1203 167.27C73.9846 167.383 73.8742 167.5 73.7845 167.617V171.483H72.8047V166.32H73.7845V166.985C73.957 166.785 74.1433 166.614 74.3434 166.472C74.5435 166.329 74.7804 166.258 75.0587 166.258C75.2335 166.258 75.3784 166.292 75.4865 166.361C75.5946 166.43 75.682 166.52 75.7464 166.63C75.8085 166.741 75.8499 166.867 75.8706 167.015C75.8913 167.159 75.9005 167.304 75.9005 167.452V171.483H74.9368H74.9391Z" fill="#770E14"/>
<path d="M80.8774 167.296C80.7854 167.211 80.675 167.17 80.5416 167.17C80.4542 167.17 80.3829 167.184 80.33 167.211C80.2771 167.239 80.2242 167.292 80.1713 167.368C80.238 167.639 80.2725 167.92 80.2725 168.209C80.2725 168.474 80.2472 168.725 80.1943 168.964C80.1414 169.203 80.0563 169.415 79.9413 169.599C79.824 169.783 79.6653 169.93 79.4652 170.04C79.2628 170.151 79.0144 170.206 78.7177 170.206C78.6579 170.206 78.5958 170.204 78.5314 170.197C78.4693 170.19 78.4049 170.181 78.3405 170.167C78.2853 170.201 78.2347 170.24 78.1864 170.286C78.1381 170.332 78.1128 170.392 78.1128 170.466C78.1128 170.578 78.1795 170.652 78.3152 170.687C78.4509 170.721 78.6188 170.744 78.8189 170.751C79.0213 170.758 79.2375 170.769 79.4675 170.785C79.6975 170.802 79.916 170.85 80.1161 170.93C80.3162 171.011 80.4864 171.135 80.6198 171.308C80.7532 171.48 80.8222 171.726 80.8222 172.048C80.8222 172.333 80.7555 172.559 80.6244 172.729C80.4933 172.899 80.3254 173.028 80.1253 173.118C79.9229 173.207 79.7021 173.265 79.4606 173.288C79.2191 173.311 78.9868 173.322 78.7637 173.322C78.605 173.322 78.4233 173.313 78.2186 173.297C78.0139 173.281 77.8207 173.24 77.6367 173.177C77.455 173.115 77.2986 173.021 77.1698 172.899C77.041 172.775 76.9766 172.605 76.9766 172.389C76.9766 172.264 76.9996 172.156 77.0456 172.067C77.0916 171.977 77.1514 171.899 77.2273 171.834C77.3032 171.768 77.3906 171.71 77.4872 171.662C77.5838 171.613 77.685 171.572 77.7885 171.538C77.6229 171.471 77.4803 171.39 77.363 171.301C77.2457 171.211 77.1859 171.064 77.1859 170.861C77.1859 170.611 77.2664 170.431 77.4297 170.321C77.593 170.21 77.777 170.123 77.9886 170.059C77.8069 169.964 77.6597 169.852 77.5493 169.718C77.4389 169.587 77.3538 169.442 77.2917 169.288C77.2296 169.132 77.1859 168.964 77.1629 168.784C77.1399 168.603 77.1284 168.421 77.1284 168.235C77.1284 167.963 77.1537 167.71 77.2043 167.471C77.2549 167.232 77.3423 167.023 77.4688 166.843C77.5953 166.664 77.7563 166.521 77.9587 166.418C78.1611 166.314 78.4118 166.264 78.7177 166.264C79.0236 166.264 79.2513 166.312 79.4468 166.409C79.6423 166.505 79.8171 166.675 79.9758 166.919C80.0563 166.668 80.1621 166.498 80.2909 166.409C80.4197 166.319 80.6152 166.275 80.8797 166.275V167.306L80.8774 167.296ZM79.9137 172.064C79.9137 171.965 79.8815 171.892 79.8194 171.839C79.7573 171.786 79.6791 171.749 79.5894 171.724C79.4997 171.699 79.4031 171.687 79.3088 171.682C79.2122 171.68 79.1294 171.678 79.0627 171.678L78.7384 171.669C78.6579 171.662 78.5728 171.655 78.4854 171.648C78.398 171.641 78.3129 171.634 78.2324 171.627C78.1611 171.682 78.1013 171.747 78.0507 171.823C78.0001 171.899 77.9748 171.981 77.9748 172.073C77.9748 172.186 78.0116 172.269 78.0829 172.326C78.1565 172.384 78.2416 172.425 78.3428 172.451C78.444 172.476 78.5452 172.49 78.6533 172.494C78.7591 172.497 78.8511 172.499 78.9293 172.499C78.996 172.499 79.088 172.499 79.203 172.494C79.318 172.49 79.4261 172.476 79.5296 172.446C79.6331 172.416 79.7228 172.372 79.801 172.315C79.8792 172.255 79.9183 172.172 79.9183 172.064H79.9137ZM79.2904 167.94C79.2904 167.835 79.2835 167.733 79.2674 167.634C79.2513 167.536 79.2214 167.444 79.1777 167.363C79.134 167.283 79.0742 167.218 78.9983 167.17C78.9224 167.122 78.8212 167.099 78.697 167.099C78.5728 167.099 78.4716 167.122 78.3957 167.17C78.3198 167.218 78.26 167.283 78.2186 167.363C78.1772 167.444 78.1473 167.536 78.1358 167.634C78.1243 167.733 78.1151 167.837 78.1151 167.94V168.508C78.1151 168.614 78.122 168.715 78.1358 168.814C78.1496 168.913 78.1772 169.003 78.2186 169.083C78.26 169.164 78.3198 169.228 78.3957 169.277C78.4716 169.325 78.5728 169.35 78.697 169.35C78.8212 169.35 78.9224 169.325 78.9983 169.277C79.0742 169.228 79.134 169.164 79.1777 169.083C79.2214 169.003 79.2513 168.913 79.2674 168.814C79.2835 168.715 79.2904 168.612 79.2904 168.508V167.94Z" fill="#770E14"/>
<path d="M86.9945 171.483L86.2791 169.073L85.7317 169.945V171.481H84.752V164.551H85.7317V168.385L86.8933 166.315H87.995L86.9439 167.999L88.0847 171.479H86.9945V171.483Z" fill="#770E14"/>
<path d="M91.1481 171.483V167.704C91.1481 167.633 91.1481 167.564 91.1435 167.493C91.1412 167.424 91.1251 167.359 91.0998 167.3C91.0745 167.24 91.0354 167.192 90.9848 167.155C90.9342 167.118 90.8629 167.1 90.7709 167.1C90.6122 167.1 90.465 167.157 90.3293 167.27C90.1936 167.382 90.0832 167.5 89.9935 167.617V171.483H89.0137V164.553H89.9935V166.982C90.166 166.782 90.3523 166.612 90.5524 166.469C90.7525 166.327 90.9894 166.255 91.2677 166.255C91.4425 166.255 91.5874 166.29 91.6955 166.359C91.8036 166.428 91.891 166.518 91.9554 166.628C92.0175 166.738 92.0589 166.865 92.0796 167.012C92.1003 167.157 92.1095 167.302 92.1095 167.449V171.481H91.1458L91.1481 171.483Z" fill="#770E14"/>
<path d="M94.1151 165.476H93.3906L93.8667 164.553H94.8764L94.1151 165.476ZM93.3998 171.483V166.32H94.3796V171.483H93.3998Z" fill="#770E14"/>
<path d="M100.761 171.483V167.704C100.761 167.633 100.761 167.564 100.757 167.493C100.754 167.424 100.738 167.359 100.713 167.3C100.688 167.24 100.649 167.192 100.598 167.155C100.547 167.118 100.476 167.1 100.384 167.1C100.225 167.1 100.078 167.157 99.9426 167.27C99.8069 167.382 99.6965 167.5 99.6068 167.617V171.483H98.627V164.553H99.6068V166.982C99.7793 166.782 99.9656 166.612 100.166 166.469C100.366 166.327 100.603 166.255 100.881 166.255C101.056 166.255 101.201 166.29 101.309 166.359C101.417 166.428 101.504 166.518 101.569 166.628C101.631 166.738 101.672 166.865 101.693 167.012C101.714 167.157 101.723 167.302 101.723 167.449V171.481H100.759L100.761 171.483Z" fill="#770E14"/>
<path d="M106.148 169.708C106.148 169.979 106.13 170.239 106.091 170.492C106.052 170.745 105.932 170.97 105.732 171.175C105.573 171.334 105.392 171.442 105.187 171.499C104.982 171.557 104.771 171.587 104.554 171.587C104.338 171.587 104.124 171.557 103.922 171.495C103.719 171.435 103.54 171.327 103.381 171.175C103.179 170.987 103.059 170.759 103.027 170.499C102.993 170.237 102.977 169.975 102.977 169.71V168.107C102.977 167.976 102.977 167.845 102.981 167.714C102.983 167.583 103 167.456 103.027 167.33C103.055 167.205 103.096 167.083 103.151 166.968C103.207 166.853 103.285 166.745 103.381 166.644C103.54 166.485 103.722 166.375 103.926 166.313C104.131 166.251 104.34 166.219 104.552 166.219C104.764 166.219 104.987 166.251 105.189 166.313C105.392 166.375 105.571 166.485 105.73 166.644C105.831 166.738 105.909 166.847 105.967 166.964C106.022 167.081 106.063 167.203 106.088 167.33C106.114 167.454 106.13 167.583 106.137 167.714C106.144 167.845 106.146 167.976 106.146 168.107V169.71L106.148 169.708ZM104.89 165.476L104.554 165.126L104.235 165.476H103.363L104.018 164.553H105.109L105.764 165.476H104.892H104.89ZM105.18 168.043C105.18 167.93 105.173 167.819 105.159 167.704C105.145 167.592 105.118 167.491 105.076 167.401C105.035 167.311 104.971 167.238 104.888 167.182C104.805 167.127 104.695 167.1 104.557 167.1C104.419 167.1 104.308 167.129 104.23 167.189C104.152 167.249 104.09 167.323 104.051 167.412C104.009 167.502 103.982 167.601 103.968 167.711C103.952 167.822 103.945 167.932 103.945 168.043V169.756C103.945 169.869 103.952 169.979 103.968 170.087C103.984 170.198 104.012 170.299 104.051 170.389C104.092 170.481 104.152 170.554 104.23 170.612C104.311 170.669 104.419 170.699 104.557 170.699C104.695 170.699 104.805 170.671 104.888 170.619C104.971 170.566 105.033 170.492 105.076 170.4C105.118 170.308 105.148 170.207 105.159 170.094C105.173 169.981 105.18 169.869 105.18 169.756V168.043ZM104.124 173.015V172.093H105.028V173.015H104.124Z" fill="#770E14"/>
<path d="M107.395 165.563V164.553H108.374V165.563H107.395ZM107.395 171.483V166.32H108.374V171.483H107.395Z" fill="#770E14"/>
<path d="M114.652 171.532C114.547 171.546 114.439 171.553 114.328 171.553C114.128 171.553 113.937 171.53 113.753 171.482C113.569 171.433 113.408 171.332 113.275 171.171C113.144 171.019 113.07 170.84 113.054 170.631C113.038 170.424 113.031 170.223 113.031 170.035V167.19H112.295V166.318H113.031V164.908H114.011V166.318H114.894V167.19H114.011V169.934C114.011 170.154 114.05 170.332 114.13 170.467C114.211 170.603 114.372 170.67 114.616 170.67C114.689 170.67 114.751 170.665 114.802 170.654C114.85 170.644 114.91 170.628 114.977 170.608V171.479C114.869 171.5 114.763 171.516 114.657 171.53L114.652 171.532Z" fill="#770E14"/>
<path d="M117.98 171.483V170.818C117.814 171.018 117.628 171.19 117.419 171.335C117.212 171.48 116.972 171.554 116.701 171.554C116.522 171.554 116.377 171.519 116.264 171.45C116.151 171.381 116.066 171.292 116.002 171.181C115.94 171.071 115.898 170.944 115.878 170.797C115.857 170.65 115.848 170.507 115.848 170.36V166.317H116.827V170.1C116.827 170.167 116.827 170.236 116.832 170.305C116.837 170.374 116.848 170.438 116.873 170.498C116.899 170.558 116.933 170.606 116.982 170.643C117.03 170.68 117.099 170.698 117.186 170.698C117.345 170.698 117.494 170.643 117.632 170.533C117.77 170.422 117.885 170.305 117.977 170.181V166.314H118.941V171.478H117.977L117.98 171.483ZM116.963 173.014V172.092H117.867V173.014H116.963Z" fill="#770E14"/>
<path d="M120.581 172.917H120.176L120.643 171.481H120.176V170.371H121.185V171.481L120.581 172.917Z" fill="#770E14"/>
<path d="M129.201 169.321C129.201 170.014 129.047 170.547 128.739 170.922C128.431 171.297 127.918 171.483 127.198 171.483H125.503V168.358H125.264V167.369H125.503V164.553H127.198C127.918 164.553 128.433 164.742 128.739 165.119C129.047 165.496 129.201 166.032 129.201 166.725V169.321ZM128.132 167.012C128.132 166.819 128.123 166.633 128.102 166.453C128.081 166.274 128.037 166.117 127.968 165.982C127.899 165.846 127.796 165.738 127.656 165.66C127.518 165.579 127.329 165.54 127.092 165.54H126.575V167.366H127.377V168.355H126.575V170.492H127.092C127.329 170.492 127.518 170.453 127.656 170.372C127.794 170.292 127.897 170.186 127.968 170.05C128.037 169.915 128.083 169.761 128.102 169.584C128.123 169.409 128.132 169.22 128.132 169.02V167.012Z" fill="#770E14"/>
<path d="M132.72 171.483C132.683 171.385 132.66 171.286 132.649 171.187C132.639 171.088 132.633 170.984 132.633 170.881C132.467 171.06 132.297 171.217 132.12 171.352C131.945 171.488 131.724 171.555 131.46 171.555C131.264 171.555 131.101 171.516 130.97 171.435C130.839 171.355 130.733 171.249 130.648 171.118C130.563 170.987 130.503 170.839 130.471 170.676C130.436 170.513 130.42 170.35 130.42 170.184C130.42 169.954 130.452 169.747 130.519 169.565C130.586 169.384 130.701 169.211 130.866 169.052C131.103 168.829 131.384 168.648 131.708 168.505C132.032 168.362 132.34 168.229 132.63 168.105V167.836C132.63 167.748 132.626 167.659 132.614 167.567C132.605 167.475 132.582 167.394 132.547 167.325C132.513 167.256 132.462 167.201 132.393 167.159C132.324 167.118 132.235 167.1 132.122 167.1C131.899 167.1 131.749 167.173 131.673 167.323C131.598 167.472 131.556 167.642 131.549 167.836H130.519C130.563 167.318 130.733 166.925 131.032 166.658C131.331 166.391 131.738 166.258 132.255 166.258C132.458 166.258 132.651 166.283 132.833 166.336C133.014 166.389 133.175 166.495 133.313 166.653C133.458 166.812 133.543 166.992 133.564 167.189C133.587 167.387 133.596 167.585 133.596 167.785V170.083C133.596 170.315 133.599 170.55 133.605 170.787C133.612 171.021 133.647 171.253 133.707 171.483H132.713H132.72ZM132.492 165.476L132.156 165.126L131.837 165.476H130.958L131.618 164.554H132.708L133.364 165.476H132.492ZM132.635 168.825C132.511 168.884 132.377 168.958 132.239 169.041C132.101 169.124 131.972 169.22 131.855 169.328C131.738 169.436 131.641 169.556 131.561 169.689C131.48 169.821 131.441 169.968 131.441 170.126C131.441 170.271 131.483 170.405 131.565 170.524C131.648 170.644 131.77 170.704 131.929 170.704C132.087 170.704 132.225 170.658 132.345 170.563C132.462 170.471 132.559 170.361 132.635 170.237V168.827V168.825ZM131.862 164.31L132.338 163.387H133.336L132.587 164.31H131.862Z" fill="#770E14"/>
<path d="M137.012 171.532C136.906 171.546 136.798 171.553 136.687 171.553C136.487 171.553 136.296 171.53 136.112 171.482C135.928 171.433 135.767 171.332 135.634 171.171C135.503 171.019 135.429 170.84 135.413 170.631C135.397 170.424 135.39 170.223 135.39 170.035V167.19H134.654V166.318H135.39V164.908H136.37V166.318H137.253V167.19H136.37V169.934C136.37 170.154 136.409 170.332 136.49 170.467C136.57 170.603 136.731 170.67 136.975 170.67C137.049 170.67 137.111 170.665 137.161 170.654C137.21 170.644 137.269 170.628 137.336 170.608V171.479C137.228 171.5 137.122 171.516 137.016 171.53L137.012 171.532Z" fill="#770E14"/>
<path d="M144.303 170.058C144.303 170.538 144.154 170.913 143.855 171.182C143.556 171.451 143.174 171.585 142.712 171.585C142.468 171.585 142.254 171.55 142.068 171.484C141.881 171.417 141.718 171.32 141.576 171.194C141.433 171.07 141.311 170.918 141.205 170.741C141.099 170.564 141.014 170.363 140.945 170.145L141.849 169.821C141.884 169.926 141.923 170.032 141.969 170.14C142.015 170.248 142.07 170.345 142.137 170.428C142.203 170.511 142.282 170.577 142.376 170.628C142.468 170.679 142.581 170.704 142.714 170.704C142.866 170.704 142.997 170.658 143.105 170.564C143.213 170.472 143.268 170.345 143.268 170.186C143.268 170.028 143.213 169.901 143.1 169.791C142.988 169.678 142.85 169.575 142.684 169.478C142.519 169.381 142.339 169.282 142.148 169.184C141.957 169.085 141.778 168.967 141.612 168.832C141.447 168.696 141.309 168.535 141.196 168.346C141.083 168.158 141.028 167.93 141.028 167.659C141.028 167.445 141.067 167.249 141.148 167.072C141.228 166.895 141.334 166.743 141.47 166.614C141.605 166.488 141.764 166.389 141.948 166.32C142.132 166.251 142.328 166.217 142.535 166.217C142.972 166.217 143.321 166.325 143.586 166.543C143.85 166.762 144.057 167.068 144.209 167.459L143.326 167.845C143.291 167.758 143.252 167.668 143.206 167.576C143.16 167.484 143.107 167.403 143.043 167.33C142.981 167.256 142.905 167.201 142.82 167.16C142.735 167.118 142.634 167.1 142.523 167.1C142.385 167.1 142.266 167.139 142.164 167.219C142.063 167.3 142.015 167.41 142.015 167.557C142.015 167.663 142.047 167.755 142.109 167.833C142.171 167.914 142.247 167.988 142.337 168.057C142.427 168.126 142.521 168.185 142.622 168.236C142.723 168.287 142.811 168.335 142.889 168.379C143.068 168.473 143.252 168.579 143.445 168.694C143.636 168.809 143.802 168.94 143.94 169.085C144.071 169.223 144.165 169.374 144.221 169.54C144.276 169.706 144.303 169.878 144.303 170.058Z" fill="#770E14"/>
<path d="M145.334 165.563V164.553H146.314V165.563H145.334ZM145.334 171.483V166.32H146.314V171.483H145.334Z" fill="#770E14"/>
<path d="M149.714 171.483V167.705C149.714 167.633 149.714 167.564 149.71 167.493C149.708 167.424 149.691 167.36 149.666 167.3C149.641 167.24 149.602 167.192 149.551 167.155C149.501 167.118 149.429 167.1 149.337 167.1C149.179 167.1 149.031 167.157 148.896 167.27C148.76 167.383 148.65 167.5 148.56 167.617V171.483H147.58V166.32H148.56V166.985C148.732 166.785 148.919 166.614 149.119 166.472C149.319 166.329 149.556 166.258 149.834 166.258C150.009 166.258 150.154 166.292 150.262 166.361C150.37 166.43 150.457 166.52 150.522 166.63C150.584 166.741 150.625 166.867 150.646 167.015C150.667 167.159 150.676 167.304 150.676 167.452V171.483H149.712H149.714Z" fill="#770E14"/>
<path d="M154.097 171.483V167.704C154.097 167.633 154.097 167.564 154.093 167.493C154.09 167.424 154.074 167.359 154.049 167.3C154.024 167.24 153.985 167.192 153.934 167.155C153.883 167.118 153.812 167.1 153.72 167.1C153.561 167.1 153.414 167.157 153.278 167.27C153.143 167.382 153.032 167.5 152.943 167.617V171.483H151.963V164.553H152.943V166.982C153.115 166.782 153.301 166.612 153.502 166.469C153.702 166.327 153.939 166.255 154.217 166.255C154.392 166.255 154.537 166.29 154.645 166.359C154.753 166.428 154.84 166.518 154.905 166.628C154.967 166.738 155.008 166.865 155.029 167.012C155.049 167.157 155.059 167.302 155.059 167.449V171.481H154.095L154.097 171.483Z" fill="#770E14"/>
<path d="M161.354 171.532C161.248 171.546 161.14 171.553 161.029 171.553C160.829 171.553 160.638 171.53 160.454 171.482C160.27 171.433 160.109 171.332 159.976 171.171C159.845 171.019 159.771 170.84 159.755 170.631C159.739 170.424 159.732 170.223 159.732 170.035V167.19H158.996V166.318H159.732V164.908H160.712V166.318H161.595V167.19H160.712V169.934C160.712 170.154 160.751 170.332 160.831 170.467C160.912 170.603 161.073 170.67 161.317 170.67C161.39 170.67 161.452 170.665 161.503 170.654C161.551 170.644 161.611 170.628 161.678 170.608V171.479C161.57 171.5 161.464 171.516 161.358 171.53L161.354 171.532Z" fill="#770E14"/>
<path d="M164.78 171.483C164.744 171.384 164.721 171.286 164.709 171.187C164.7 171.088 164.693 170.984 164.693 170.881C164.527 171.06 164.357 171.217 164.18 171.352C164.005 171.488 163.785 171.555 163.52 171.555C163.325 171.555 163.161 171.516 163.03 171.435C162.899 171.355 162.793 171.249 162.708 171.118C162.623 170.987 162.563 170.839 162.531 170.676C162.497 170.513 162.48 170.349 162.48 170.184C162.48 169.954 162.513 169.747 162.579 169.565C162.646 169.383 162.761 169.211 162.927 169.052C163.164 168.829 163.444 168.647 163.768 168.505C164.093 168.362 164.401 168.229 164.691 168.105V167.836C164.691 167.748 164.686 167.658 164.675 167.566C164.665 167.474 164.642 167.394 164.608 167.325C164.573 167.256 164.523 167.201 164.454 167.159C164.385 167.118 164.295 167.1 164.182 167.1C163.959 167.1 163.81 167.173 163.734 167.323C163.658 167.472 163.617 167.642 163.61 167.836H162.579C162.623 167.318 162.793 166.925 163.092 166.658C163.389 166.391 163.798 166.258 164.316 166.258C164.518 166.258 164.711 166.283 164.893 166.336C165.075 166.389 165.236 166.495 165.374 166.653C165.519 166.812 165.604 166.991 165.625 167.189C165.648 167.387 165.657 167.585 165.657 167.785V170.083C165.657 170.315 165.659 170.55 165.666 170.786C165.673 171.021 165.707 171.253 165.767 171.483H164.774H164.78ZM163.854 165.476L163.108 164.553H164.102L164.585 165.476H163.854ZM164.695 168.825C164.571 168.884 164.438 168.958 164.3 169.041C164.162 169.124 164.033 169.22 163.916 169.328C163.798 169.436 163.702 169.556 163.621 169.689C163.541 169.82 163.502 169.968 163.502 170.126C163.502 170.271 163.543 170.405 163.626 170.524C163.709 170.644 163.831 170.704 163.989 170.704C164.148 170.704 164.286 170.658 164.406 170.563C164.523 170.471 164.619 170.361 164.695 170.237V168.827V168.825Z" fill="#770E14"/>
<path d="M167.047 165.563V164.553H168.027V165.563H167.047ZM167.047 171.483V166.32H168.027V171.483H167.047Z" fill="#770E14"/>
<path d="M172.281 171.483V164.553H173.261V171.483H172.281Z" fill="#770E14"/>
<path d="M177.668 169.708C177.668 169.979 177.649 170.239 177.61 170.492C177.571 170.745 177.452 170.97 177.252 171.175C177.093 171.334 176.911 171.442 176.706 171.499C176.502 171.557 176.29 171.587 176.074 171.587C175.858 171.587 175.644 171.557 175.441 171.495C175.239 171.435 175.06 171.327 174.901 171.175C174.698 170.987 174.579 170.759 174.547 170.499C174.512 170.237 174.496 169.975 174.496 169.71V168.107C174.496 167.976 174.496 167.845 174.501 167.714C174.503 167.583 174.519 167.456 174.547 167.33C174.574 167.205 174.616 167.083 174.671 166.968C174.726 166.853 174.804 166.745 174.901 166.644C175.06 166.485 175.241 166.375 175.446 166.313C175.651 166.251 175.86 166.219 176.072 166.219C176.283 166.219 176.506 166.251 176.709 166.313C176.911 166.375 177.091 166.485 177.249 166.644C177.35 166.738 177.429 166.847 177.486 166.964C177.541 167.081 177.583 167.203 177.608 167.33C177.633 167.454 177.649 167.583 177.656 167.714C177.663 167.845 177.666 167.976 177.666 168.107V169.71L177.668 169.708ZM176.41 165.476L176.074 165.126L175.754 165.476H174.882L175.538 164.553H176.628L177.284 165.476H176.412H176.41ZM176.699 168.043C176.699 167.93 176.693 167.819 176.679 167.704C176.665 167.592 176.637 167.491 176.596 167.401C176.555 167.311 176.49 167.238 176.407 167.182C176.325 167.127 176.214 167.1 176.076 167.1C175.938 167.1 175.828 167.129 175.75 167.189C175.671 167.249 175.609 167.323 175.57 167.412C175.529 167.502 175.501 167.601 175.487 167.711C175.471 167.822 175.464 167.932 175.464 168.043V169.756C175.464 169.869 175.471 169.979 175.487 170.087C175.503 170.198 175.531 170.299 175.57 170.389C175.612 170.481 175.671 170.554 175.75 170.612C175.83 170.669 175.938 170.699 176.076 170.699C176.214 170.699 176.325 170.671 176.407 170.619C176.49 170.566 176.552 170.492 176.596 170.4C176.637 170.308 176.667 170.207 176.679 170.094C176.693 169.981 176.699 169.869 176.699 169.756V168.043ZM175.644 173.015V172.093H176.548V173.015H175.644Z" fill="#770E14"/>
<path d="M182.03 170.51C181.991 170.728 181.892 170.926 181.734 171.105C181.575 171.287 181.386 171.413 181.168 171.48C180.949 171.547 180.726 171.581 180.496 171.581C180.25 171.581 180.011 171.542 179.783 171.462C179.555 171.381 179.36 171.243 179.197 171.043C179.045 170.85 178.953 170.629 178.923 170.378C178.893 170.128 178.877 169.886 178.877 169.654V168.157C178.877 167.906 178.893 167.662 178.923 167.423C178.953 167.184 179.045 166.961 179.197 166.751C179.353 166.551 179.549 166.413 179.788 166.333C180.027 166.252 180.266 166.213 180.51 166.213C180.738 166.213 180.956 166.248 181.172 166.317C181.386 166.386 181.575 166.508 181.734 166.68C181.913 166.873 182.016 167.096 182.046 167.349C182.074 167.602 182.09 167.853 182.09 168.099H181.122C181.122 167.984 181.119 167.867 181.113 167.75C181.106 167.632 181.083 167.524 181.041 167.428C181 167.331 180.94 167.253 180.855 167.188C180.77 167.124 180.653 167.094 180.498 167.094C180.333 167.094 180.204 167.133 180.114 167.209C180.025 167.285 179.96 167.382 179.919 167.499C179.877 167.616 179.854 167.743 179.85 167.883C179.845 168.021 179.843 168.154 179.843 168.279V169.527C179.843 169.652 179.845 169.783 179.85 169.918C179.854 170.054 179.877 170.181 179.919 170.296C179.96 170.413 180.025 170.51 180.114 170.585C180.204 170.661 180.331 170.7 180.498 170.7C180.655 170.7 180.772 170.668 180.855 170.602C180.938 170.535 181 170.452 181.041 170.353C181.083 170.254 181.106 170.142 181.113 170.015C181.119 169.891 181.122 169.769 181.122 169.654H182.09V169.836C182.09 170.066 182.072 170.289 182.033 170.507L182.03 170.51Z" fill="#770E14"/>
<defs>
<linearGradient id="paint0_linear_282_3730" x1="18.4523" y1="19.6387" x2="191.07" y2="133.098" gradientUnits="userSpaceOnUse">
<stop stop-color="#70491D"/>
<stop offset="0.27" stop-color="#FDED83"/>
<stop offset="0.53" stop-color="#B48636"/>
<stop offset="0.76" stop-color="#F9E980"/>
<stop offset="1" stop-color="#744C1E"/>
</linearGradient>
<linearGradient id="paint1_linear_282_3730" x1="105.756" y1="89.0782" x2="146.815" y2="167.959" gradientUnits="userSpaceOnUse">
<stop stop-color="#70491D"/>
<stop offset="0.27" stop-color="#FDED83"/>
<stop offset="0.53" stop-color="#B48636"/>
<stop offset="0.76" stop-color="#F9E980"/>
<stop offset="1" stop-color="#744C1E"/>
</linearGradient>
<linearGradient id="paint2_linear_282_3730" x1="101.314" y1="94.9661" x2="142.104" y2="194.917" gradientUnits="userSpaceOnUse">
<stop stop-color="#70491D"/>
<stop offset="0.27" stop-color="#FDED83"/>
<stop offset="0.53" stop-color="#B48636"/>
<stop offset="0.76" stop-color="#F9E980"/>
<stop offset="1" stop-color="#744C1E"/>
</linearGradient>
<linearGradient id="paint3_linear_282_3730" x1="92.1386" y1="48.6038" x2="112.397" y2="106.953" gradientUnits="userSpaceOnUse">
<stop stop-color="#70491D"/>
<stop offset="0.27" stop-color="#FDED83"/>
<stop offset="0.53" stop-color="#B48636"/>
<stop offset="0.76" stop-color="#F9E980"/>
<stop offset="1" stop-color="#744C1E"/>
</linearGradient>
</defs>
</svg>
