<svg width="22" height="22" viewBox="0 0 22 22" fill="none" xmlns="http://www.w3.org/2000/svg">
<path d="M17.3522 11.6262C17.3416 9.82294 18.1622 8.46385 19.8192 7.46173C18.8925 6.13967 17.4903 5.41253 15.642 5.27239C13.892 5.1349 11.9773 6.28774 11.2762 6.28774C10.5353 6.28774 8.84108 5.31999 7.50798 5.31999C4.7568 5.36229 1.83301 7.50403 1.83301 11.8616C1.83301 13.1492 2.06935 14.4792 2.54205 15.8489C3.17408 17.6522 5.45256 22.0705 7.82931 21.9991C9.07212 21.9701 9.95111 21.1213 11.5684 21.1213C13.1378 21.1213 13.9504 21.9991 15.3366 21.9991C17.7346 21.9648 19.7953 17.9483 20.3955 16.1398C17.1796 14.63 17.3522 11.7188 17.3522 11.6262ZM14.5612 3.56164C15.9076 1.96988 15.7854 0.520893 15.7456 0C14.5559 0.0687473 13.1803 0.806459 12.3969 1.7134C11.5338 2.68643 11.0266 3.88951 11.1355 5.24595C12.4208 5.34378 13.5946 4.6854 14.5612 3.56164Z" fill="black"/>
</svg>
