<svg width="32" height="32" viewBox="0 0 32 32" fill="none" xmlns="http://www.w3.org/2000/svg">
<path fill-rule="evenodd" clip-rule="evenodd" d="M24.75 11C24.75 11.4142 24.4142 11.75 24 11.75L8 11.75C7.58579 11.75 7.25 11.4142 7.25 11C7.25 10.5858 7.58579 10.25 8 10.25L24 10.25C24.4142 10.25 24.75 10.5858 24.75 11Z" fill="white"/>
<path fill-rule="evenodd" clip-rule="evenodd" d="M24.75 16C24.75 16.4142 24.4142 16.75 24 16.75L8 16.75C7.58579 16.75 7.25 16.4142 7.25 16C7.25 15.5858 7.58579 15.25 8 15.25L24 15.25C24.4142 15.25 24.75 15.5858 24.75 16Z" fill="white"/>
<path fill-rule="evenodd" clip-rule="evenodd" d="M24.75 21C24.75 21.4142 24.4142 21.75 24 21.75L8 21.75C7.58579 21.75 7.25 21.4142 7.25 21C7.25 20.5858 7.58579 20.25 8 20.25L24 20.25C24.4142 20.25 24.75 20.5858 24.75 21Z" fill="white"/>
</svg>
