<svg width="25" height="34" viewBox="0 0 25 34" fill="none" xmlns="http://www.w3.org/2000/svg">
<g opacity="0.2" filter="url(#filter0_f_226_16379)">
<ellipse cx="12.4997" cy="30.4613" rx="4.16667" ry="1.53846" fill="#50505F"/>
</g>
<path fill-rule="evenodd" clip-rule="evenodd" d="M12.5 0C19.4036 0 25 5.78586 25 12.9231C25 18.3954 21.71 23.0733 17.0633 24.958L13.212 30.4004C13.1317 30.5143 13.0251 30.6073 12.9011 30.6715C12.7772 30.7357 12.6396 30.7692 12.5 30.7692C12.3604 30.7692 12.2228 30.7357 12.0989 30.6715C11.9749 30.6073 11.8683 30.5143 11.788 30.4004L7.9367 24.958C3.29003 23.0733 0 18.3954 0 12.9231C0 5.78586 5.59644 0 12.5 0Z" fill="#EFD8B6"/>
<path d="M22.619 12.9235C22.619 7.1457 18.0885 2.46191 12.4999 2.46191C6.91131 2.46191 2.38086 7.1457 2.38086 12.9235C2.38086 18.7012 6.91131 23.385 12.4999 23.385C18.0885 23.385 22.619 18.7012 22.619 12.9235Z" fill="#8A3E1C"/>
<path fill-rule="evenodd" clip-rule="evenodd" d="M14.7378 8.03223H15.7695C16.7423 8.03223 17.2286 8.03223 17.5308 8.33442C17.833 8.63661 17.833 9.12298 17.833 10.0957V17.9628H18.3489C18.5626 17.9628 18.7358 18.136 18.7358 18.3497C18.7358 18.5634 18.5626 18.7366 18.3489 18.7366H8.03144C7.81775 18.7366 7.64453 18.5634 7.64453 18.3497C7.64453 18.136 7.81775 17.9628 8.03144 17.9628H8.54731V11.6433C8.54731 10.6706 8.54731 10.1842 8.8495 9.88204C9.15169 9.57985 9.63806 9.57985 10.6108 9.57985H12.6743C13.647 9.57985 14.1334 9.57985 14.4356 9.88204C14.7378 10.1842 14.7378 10.6706 14.7378 11.6433V17.9628H15.5116V11.6433L15.5116 11.5972C15.5117 11.1506 15.5117 10.7412 15.4669 10.4081C15.4176 10.0414 15.3016 9.6537 14.9828 9.33487C14.6639 9.01604 14.2763 8.90002 13.9095 8.85071C13.5811 8.80656 13.1785 8.80599 12.7393 8.80603C12.7828 8.60626 12.8554 8.45554 12.9765 8.33442C13.2787 8.03223 13.765 8.03223 14.7378 8.03223ZM9.70802 11.1275C9.70802 10.9138 9.88125 10.7406 10.0949 10.7406H13.1902C13.4038 10.7406 13.5771 10.9138 13.5771 11.1275C13.5771 11.3411 13.4038 11.5144 13.1902 11.5144H10.0949C9.88125 11.5144 9.70802 11.3411 9.70802 11.1275ZM9.70802 12.6751C9.70802 12.4614 9.88125 12.2882 10.0949 12.2882H13.1902C13.4038 12.2882 13.5771 12.4614 13.5771 12.6751C13.5771 12.8888 13.4038 13.062 13.1902 13.062H10.0949C9.88125 13.062 9.70802 12.8888 9.70802 12.6751ZM9.70802 14.2227C9.70802 14.009 9.88125 13.8358 10.0949 13.8358H13.1902C13.4038 13.8358 13.5771 14.009 13.5771 14.2227C13.5771 14.4364 13.4038 14.6096 13.1902 14.6096H10.0949C9.88125 14.6096 9.70802 14.4364 9.70802 14.2227ZM11.6425 16.4152C11.8562 16.4152 12.0295 16.5884 12.0295 16.8021V17.9628H11.2556V16.8021C11.2556 16.5884 11.4289 16.4152 11.6425 16.4152Z" fill="white"/>
<defs>
<filter id="filter0_f_226_16379" x="6.33301" y="26.9229" width="12.333" height="7.07715" filterUnits="userSpaceOnUse" color-interpolation-filters="sRGB">
<feFlood flood-opacity="0" result="BackgroundImageFix"/>
<feBlend mode="normal" in="SourceGraphic" in2="BackgroundImageFix" result="shape"/>
<feGaussianBlur stdDeviation="1" result="effect1_foregroundBlur_226_16379"/>
</filter>
</defs>
</svg>
