<svg width="20" height="20" viewBox="0 0 20 20" fill="none" xmlns="http://www.w3.org/2000/svg">
<path fill-rule="evenodd" clip-rule="evenodd" d="M2.70801 8.45307C2.70801 4.37055 5.96218 1.04199 9.99967 1.04199C14.0372 1.04199 17.2913 4.37055 17.2913 8.45307C17.2913 10.424 16.7297 12.5402 15.7367 14.3685C14.745 16.1946 13.296 17.7813 11.4834 18.6286C10.5418 19.0687 9.45754 19.0687 8.51592 18.6286C6.70332 17.7813 5.25436 16.1946 4.26264 14.3685C3.2697 12.5402 2.70801 10.424 2.70801 8.45307ZM9.99967 2.29199C6.67337 2.29199 3.95801 5.03989 3.95801 8.45307C3.95801 10.2006 4.4602 12.1132 5.36109 13.772C6.26321 15.433 7.53802 16.7917 9.04521 17.4962C9.65138 17.7795 10.348 17.7795 10.9541 17.4962C12.4613 16.7917 13.7361 15.433 14.6383 13.772C15.5391 12.1132 16.0413 10.2006 16.0413 8.45307C16.0413 5.03989 13.326 2.29199 9.99967 2.29199ZM9.99967 6.45866C8.96414 6.45866 8.12467 7.29812 8.12467 8.33366C8.12467 9.36919 8.96414 10.2087 9.99967 10.2087C11.0352 10.2087 11.8747 9.36919 11.8747 8.33366C11.8747 7.29812 11.0352 6.45866 9.99967 6.45866ZM6.87467 8.33366C6.87467 6.60777 8.27378 5.20866 9.99967 5.20866C11.7256 5.20866 13.1247 6.60777 13.1247 8.33366C13.1247 10.0595 11.7256 11.4587 9.99967 11.4587C8.27378 11.4587 6.87467 10.0595 6.87467 8.33366Z" fill="white"/>
</svg>
