<svg width="20" height="20" viewBox="0 0 20 20" fill="none" xmlns="http://www.w3.org/2000/svg">
<path fill-rule="evenodd" clip-rule="evenodd" d="M3.9439 2.95226C4.95835 1.94358 6.62866 2.12312 7.47809 3.25777L8.52891 4.66144C9.22007 5.58468 9.15908 6.87502 8.33866 7.69078L8.13968 7.88863C8.13099 7.91387 8.10992 7.99322 8.13331 8.14401C8.18599 8.48359 8.46956 9.20393 9.65999 10.3876C10.85 11.5709 11.5755 11.8541 11.9198 11.907C12.0759 11.9309 12.1576 11.9086 12.1828 11.8998L12.5228 11.5617C13.2522 10.8365 14.3729 10.7009 15.2759 11.1918L16.868 12.0573C18.2313 12.7984 18.5757 14.6515 17.4588 15.7621L16.275 16.9392C15.902 17.31 15.4004 17.6193 14.7883 17.6764C13.2808 17.8169 9.76558 17.6376 6.07216 13.9651C2.6239 10.5364 1.96218 7.54642 1.87846 6.07323L2.50245 6.03777L1.87846 6.07323C1.83612 5.32831 2.18814 4.69806 2.6359 4.25283L3.9439 2.95226ZM6.47743 4.00689C6.05524 3.44294 5.26834 3.3981 4.82527 3.83866L3.51727 5.13923C3.24233 5.4126 3.11005 5.71388 3.12644 6.00231C3.19296 7.17281 3.72738 9.87088 6.95352 13.0787C10.3381 16.444 13.464 16.5444 14.6723 16.4318C14.9191 16.4087 15.1646 16.2805 15.3936 16.0528L16.5774 14.8757C17.0586 14.3972 16.9525 13.526 16.271 13.1555L14.6789 12.2901C14.2393 12.0511 13.7242 12.1299 13.4042 12.4481L13.0247 12.8255L12.584 12.3823C13.0247 12.8255 13.0241 12.8261 13.0235 12.8267L13.0222 12.8279L13.0197 12.8304L13.0143 12.8356L13.0021 12.8469C12.9933 12.8549 12.9833 12.8637 12.972 12.8731C12.9493 12.8918 12.9215 12.913 12.8882 12.9353C12.8215 12.98 12.7334 13.0286 12.6227 13.0699C12.397 13.154 12.0993 13.1991 11.7303 13.1425C11.008 13.0317 10.0511 12.5393 8.77863 11.274C7.50656 10.0092 7.00995 9.05671 6.89809 8.33564C6.84088 7.96693 6.88651 7.66918 6.97161 7.4433C7.01332 7.3326 7.06248 7.24458 7.10758 7.178C7.13008 7.1448 7.15149 7.11704 7.17039 7.09449C7.17983 7.08322 7.18866 7.07323 7.1967 7.06451L7.20814 7.05235L7.21338 7.04697L7.21587 7.04445L7.21709 7.04323C7.21769 7.04264 7.21828 7.04204 7.65896 7.48524L7.21828 7.04204L7.45729 6.80439C7.81446 6.44925 7.86449 5.85971 7.52825 5.41056L6.47743 4.00689Z" fill="white"/>
</svg>
