<svg width="61" height="24" viewBox="0 0 61 24" fill="none" xmlns="http://www.w3.org/2000/svg">
<path d="M4.5 5.15374C4.30214 5.43717 4.0254 5.64973 3.66979 5.79144C3.31684 5.93048 2.90508 6 2.43449 6C1.95856 6 1.5361 5.88904 1.16711 5.66711C0.798128 5.44251 0.512032 5.12433 0.308824 4.71257C0.108289 4.3008 0.00534759 3.82353 0 3.28075V2.77139C0 1.89171 0.204545 1.20989 0.613636 0.725936C1.0254 0.241979 1.60294 0 2.34626 0C2.95588 0 3.44652 0.156417 3.81818 0.469251C4.18984 0.779412 4.41711 1.22059 4.5 1.79278H3.72995C3.58556 1.02005 3.12567 0.63369 2.35027 0.63369C1.83422 0.63369 1.44251 0.815508 1.17513 1.17914C0.910428 1.54011 0.776738 2.06417 0.774064 2.75134V3.22861C0.774064 3.88369 0.923797 4.40508 1.22326 4.79278C1.52273 5.17781 1.92781 5.37032 2.4385 5.37032C2.72727 5.37032 2.97995 5.33824 3.19652 5.27406C3.4131 5.20989 3.59225 5.1016 3.73396 4.9492V3.6377H2.38235V3.01203H4.5V5.15374Z" fill="black"/>
<path d="M7.47193 6C6.88369 6 6.40508 5.80749 6.0361 5.42246C5.66711 5.03476 5.48262 4.51738 5.48262 3.87032V3.73396C5.48262 3.30348 5.56417 2.91979 5.72727 2.58289C5.89305 2.24332 6.12299 1.97861 6.41711 1.78877C6.7139 1.59626 7.03476 1.5 7.37968 1.5C7.94385 1.5 8.38235 1.68583 8.69519 2.05749C9.00802 2.42914 9.16444 2.96123 9.16444 3.65374V3.96257H6.2246C6.23529 4.39037 6.35963 4.73663 6.59759 5.00134C6.83824 5.26337 7.14305 5.39438 7.51203 5.39438C7.77406 5.39438 7.99599 5.34091 8.17781 5.23396C8.35963 5.12701 8.51872 4.98529 8.65508 4.80882L9.10829 5.16176C8.74465 5.72059 8.1992 6 7.47193 6ZM7.37968 2.10963C7.08021 2.10963 6.82888 2.21925 6.62567 2.4385C6.42246 2.65508 6.29679 2.95989 6.24866 3.35294H8.42246V3.29679C8.40107 2.91979 8.29947 2.62834 8.11765 2.42246C7.93583 2.2139 7.68984 2.10963 7.37968 2.10963Z" fill="black"/>
<path d="M11.0334 0.529412V1.58021H11.8436V2.15374H11.0334V4.84492C11.0334 5.01872 11.0695 5.14973 11.1417 5.23797C11.2139 5.32353 11.3369 5.36631 11.5107 5.36631C11.5963 5.36631 11.7139 5.35027 11.8636 5.31818V5.91979C11.6684 5.97326 11.4786 6 11.2941 6C10.9626 6 10.7126 5.89973 10.5441 5.6992C10.3757 5.49866 10.2914 5.2139 10.2914 4.84492V2.15374H9.50134V1.58021H10.2914V0.529412H11.0334Z" fill="black"/>
<path d="M15.5575 5.91979H14.8155V1.58021H15.5575V5.91979ZM14.7553 0.429144C14.7553 0.308824 14.7914 0.207219 14.8636 0.124332C14.9385 0.0414439 15.0481 0 15.1925 0C15.3369 0 15.4465 0.0414439 15.5214 0.124332C15.5963 0.207219 15.6337 0.308824 15.6337 0.429144C15.6337 0.549465 15.5963 0.649733 15.5214 0.729947C15.4465 0.81016 15.3369 0.850267 15.1925 0.850267C15.0481 0.850267 14.9385 0.81016 14.8636 0.729947C14.7914 0.649733 14.7553 0.549465 14.7553 0.429144Z" fill="black"/>
<path d="M17.4505 1.58021L17.4746 2.12567C17.8062 1.70856 18.2393 1.5 18.7741 1.5C19.6912 1.5 20.1537 2.01738 20.1618 3.05214V5.91979H19.4198V3.04813C19.4171 2.73529 19.3449 2.50401 19.2032 2.35428C19.0642 2.20455 18.8463 2.12968 18.5495 2.12968C18.3088 2.12968 18.0976 2.19385 17.9158 2.32219C17.734 2.45053 17.5922 2.61898 17.4906 2.82754V5.91979H16.7487V1.58021H17.4505Z" fill="black"/>
<path d="M23.1217 3.70989C23.1217 3.28476 23.2045 2.90241 23.3703 2.56283C23.5388 2.22326 23.7714 1.96123 24.0682 1.77674C24.3676 1.59225 24.7086 1.5 25.0909 1.5C25.6818 1.5 26.1591 1.70455 26.5227 2.11364C26.889 2.52273 27.0722 3.06684 27.0722 3.74599V3.79813C27.0722 4.22059 26.9906 4.60027 26.8275 4.93717C26.6671 5.27139 26.4358 5.53209 26.1337 5.71925C25.8342 5.90642 25.4893 6 25.0989 6C24.5107 6 24.0334 5.79545 23.6671 5.38636C23.3035 4.97727 23.1217 4.43583 23.1217 3.76203V3.70989ZM23.8676 3.79813C23.8676 4.27941 23.9786 4.66578 24.2005 4.95722C24.4251 5.24866 24.7246 5.39438 25.0989 5.39438C25.4759 5.39438 25.7754 5.24733 25.9973 4.95321C26.2193 4.65642 26.3302 4.24198 26.3302 3.70989C26.3302 3.23396 26.2166 2.84893 25.9893 2.55481C25.7647 2.25802 25.4652 2.10963 25.0909 2.10963C24.7246 2.10963 24.4291 2.25535 24.2045 2.54679C23.9799 2.83824 23.8676 3.25535 23.8676 3.79813Z" fill="black"/>
<path d="M28.7045 1.58021L28.7286 2.12567C29.0602 1.70856 29.4933 1.5 30.0281 1.5C30.9452 1.5 31.4078 2.01738 31.4158 3.05214V5.91979H30.6738V3.04813C30.6711 2.73529 30.5989 2.50401 30.4572 2.35428C30.3182 2.20455 30.1003 2.12968 29.8035 2.12968C29.5628 2.12968 29.3516 2.19385 29.1698 2.32219C28.988 2.45053 28.8463 2.61898 28.7447 2.82754V5.91979H28.0027V1.58021H28.7045Z" fill="black"/>
<path d="M19.9566 15.3227C18.3235 15.3227 16.9742 16.5865 16.9742 18.3192C16.9742 20.0378 18.3093 21.3157 19.9567 21.3157C21.6039 21.3157 22.9389 20.052 22.9389 18.3192C22.9389 16.5865 21.6039 15.3227 19.9566 15.3227ZM19.9566 20.1234C19.0617 20.1234 18.281 19.3704 18.281 18.3059C18.281 17.2265 19.0623 16.4884 19.9566 16.4884C20.8509 16.4884 21.6321 17.2265 21.6321 18.3059C21.6321 19.3704 20.8509 20.1234 19.9566 20.1234ZM13.4664 15.3227C11.8191 15.3227 10.4839 16.5865 10.4839 18.3192C10.4839 20.0378 11.8191 21.3157 13.4664 21.3157C15.1136 21.3157 16.4488 20.052 16.4488 18.3192C16.4488 16.5865 15.1136 15.3227 13.4663 15.3227H13.4664ZM13.4664 20.1234C12.5714 20.1234 11.7909 19.3704 11.7909 18.3059C11.7909 17.2265 12.5721 16.4884 13.4664 16.4884C14.3613 16.4884 15.1419 17.2265 15.1419 18.3059C15.1419 19.3704 14.3747 20.1234 13.4664 20.1234ZM5.75483 16.246V17.5097H8.76533C8.6798 18.2197 8.43909 18.7452 8.08377 19.1005C7.6437 19.5405 6.96198 20.0237 5.75483 20.0237C3.89411 20.0237 2.46023 18.5184 2.46023 16.6579C2.46023 14.7973 3.89488 13.2636 5.75483 13.2636C6.76279 13.2636 7.48758 13.6614 8.02716 14.1728L8.92145 13.2778C8.16851 12.5537 7.16056 12 5.75483 12C3.21239 12 1.08203 14.0873 1.08203 16.6296C1.08203 19.172 3.21239 21.2593 5.75483 21.2593C7.13226 21.2593 8.15514 20.8051 8.97867 19.9525C9.81651 19.1146 10.0722 17.9356 10.0722 16.9843C10.0722 16.6862 10.044 16.4162 10.0009 16.1889L5.75483 16.246ZM37.3111 17.2258C37.0694 16.5582 36.303 15.3227 34.7686 15.3227C33.2345 15.3227 31.9707 16.5301 31.9707 18.3192C31.9707 19.9948 33.2345 21.3157 34.9108 21.3157C36.274 21.3157 37.0553 20.4779 37.3817 19.9948L36.3737 19.3132C36.0326 19.8105 35.5783 20.1367 34.9108 20.1367C34.2432 20.1367 33.7748 19.8386 33.4761 19.2277L37.4383 17.5663L37.3111 17.2258ZM33.2775 18.2345C33.2494 17.0838 34.1726 16.4876 34.8252 16.4876C35.3508 16.4876 35.7769 16.7432 35.9329 17.1269L33.2775 18.2345ZM30.0537 21.1172H31.3605V12.3404H30.0537V21.1172ZM27.924 15.9903H27.8815C27.5834 15.635 27.0297 15.3227 26.319 15.3227C24.8278 15.3227 23.4787 16.6437 23.4787 18.3192C23.4787 19.9948 24.8419 21.3017 26.319 21.3017C27.0289 21.3017 27.5828 20.9893 27.8815 20.6199H27.924V21.0459C27.924 22.1967 27.3128 22.8068 26.3332 22.8068C25.5378 22.8068 25.0405 22.2248 24.8419 21.7417L23.7062 22.2248C24.0324 23.0202 24.8992 24 26.3332 24C27.8667 24 29.1594 23.0909 29.1594 20.8898V15.5072H27.924V15.9903ZM26.4327 20.1234C25.5378 20.1234 24.7855 19.3704 24.7855 18.32C24.7855 17.2696 25.5384 16.5024 26.4327 16.5024C27.3136 16.5024 28.0235 17.2696 28.0235 18.32C28.0229 19.3563 27.3128 20.1234 26.4327 20.1234ZM43.4036 12.3405H40.2793V21.1172H41.5861V17.7936H43.4036C44.8524 17.7936 46.2723 16.7425 46.2723 15.0671C46.2723 13.3916 44.8524 12.3404 43.4036 12.3404V12.3405ZM43.4459 16.5731H41.5995V13.5617H43.4459C44.4116 13.5617 44.9796 14.3712 44.9796 15.0669C44.9661 15.7487 44.4123 16.5731 43.4459 16.5731ZM51.4847 15.3086C50.5473 15.3086 49.5674 15.7205 49.1697 16.6579L50.3204 17.141C50.5762 16.6579 51.0305 16.5017 51.5136 16.5017C52.1953 16.5017 52.8769 16.9135 52.891 17.6375V17.7231C52.6494 17.5811 52.1529 17.3819 51.5278 17.3819C50.2781 17.3819 49.0136 18.0778 49.0136 19.3563C49.0136 20.5351 50.0365 21.2876 51.1724 21.2876C52.0532 21.2876 52.5357 20.8898 52.8338 20.4215H52.8763V21.1032H54.1399V17.737C54.1259 16.1893 52.9758 15.3084 51.4847 15.3084V15.3086ZM51.3286 20.1092C50.9025 20.1092 50.3057 19.8959 50.3057 19.3711C50.3057 18.6893 51.0438 18.4337 51.6831 18.4337C52.251 18.4337 52.5209 18.5615 52.8763 18.7318C52.7767 19.5413 52.0809 20.1092 51.3286 20.1092ZM58.699 15.5079L57.2077 19.2997H57.1653L55.6177 15.5078H54.212L56.5408 20.8191L55.2198 23.7874H56.5831L60.1475 15.5078H58.6988L58.699 15.5079ZM46.9969 21.1172H48.3037V12.3404H46.9969V21.1172Z" fill="black"/>
</svg>
