<svg width="22" height="22" viewBox="0 0 22 22" fill="none" xmlns="http://www.w3.org/2000/svg">
<g clip-path="url(#clip0_282_3998)">
<path d="M16.1049 14.389C18.716 12.9553 20.6953 11.8628 20.8659 11.7779C21.4117 11.4877 21.9754 10.7195 20.8659 10.1228C20.5077 9.93511 18.5792 8.87669 16.1049 7.51172L12.6748 10.9758L16.1049 14.3889V14.389Z" fill="#FFD900"/>
<path d="M12.6747 10.9746L1.75293 21.9822C2.00929 22.0161 2.29871 21.9481 2.63993 21.7606C3.35633 21.3684 10.9508 17.221 16.1048 14.3885L12.6747 10.9746Z" fill="#F43249"/>
<path d="M12.6751 10.9755L16.1052 7.52839C16.1052 7.52839 3.4085 0.599262 2.64031 0.190228C2.35088 0.0188123 2.02655 -0.0321058 1.73633 0.0188123L12.6751 10.9755Z" fill="#00EE76"/>
<path d="M12.6749 10.9762L1.73611 0.0195312C1.29216 0.122172 0.916992 0.514394 0.916992 1.31653V20.6867C0.916992 21.4209 1.2073 21.9497 1.75308 22.0007L12.6749 10.9762Z" fill="#00D3FF"/>
</g>
<defs>
<clipPath id="clip0_282_3998">
<rect width="22" height="22" fill="white"/>
</clipPath>
</defs>
</svg>
